<?xml version="1.0" encoding="utf-8"?>
<!-- Generator: Adobe Illustrator 17.0.0, SVG Export Plug-In . SVG Version: 6.00 Build 0)  -->
<!DOCTYPE svg PUBLIC "-//W3C//DTD SVG 1.1//EN" "http://www.w3.org/Graphics/SVG/1.1/DTD/svg11.dtd">
<svg version="1.1" id="Layer_2" xmlns="http://www.w3.org/2000/svg" xmlns:xlink="http://www.w3.org/1999/xlink" x="0px" y="0px"
	 width="357.484px" height="360.667px" viewBox="0 0 357.484 360.667" enable-background="new 0 0 357.484 360.667"
	 xml:space="preserve">
<g>
	
		<rect x="10.954" y="139.42" transform="matrix(-0.7071 0.7071 -0.7071 -0.7071 363.0081 194.375)" fill="#F1C40F" width="260.587" height="65.897"/>
	
		<rect x="56.843" y="185.31" transform="matrix(-0.7071 0.7071 -0.7071 -0.7071 473.7938 240.2639)" fill="#F39C12" width="260.587" height="65.896"/>
	<polygon fill="#FFECBA" points="26.035,241.104 26.879,240.849 118.657,332.627 118.401,333.47 2.943,356.563 	"/>
	<polygon fill="#393939" points="9.636,323.102 10.479,322.849 36.657,349.026 36.405,349.87 2.71,356.838 	"/>
	
		<rect x="225.271" y="30.128" transform="matrix(-0.7071 0.7071 -0.7071 -0.7071 472.3003 -69.4797)" fill="#DAEAF2" width="50.538" height="65.897"/>
	
		<rect x="271.16" y="76.017" transform="matrix(-0.7071 0.7071 -0.7071 -0.7071 583.086 -23.5907)" fill="#BEDAE8" width="50.538" height="65.896"/>
	<path fill="#E88F8D" d="M244.403,22.618l0.354-0.354c0.521-0.521,1.057-1.019,1.592-1.516l0.146-0.136
		c25.882-24.078,65.742-23.352,90.747,1.652l0.354,0.354l-46.596,46.596L244.403,22.618z"/>
	<path fill="#D97475" d="M290.292,68.507l46.596-46.596l0.354,0.354c25.004,25.004,25.73,64.865,1.652,90.747l-0.117,0.126
		c-0.504,0.542-1.008,1.085-1.536,1.612l-0.354,0.354L290.292,68.507z"/>
</g>
</svg>
