<?xml version="1.0" encoding="utf-8"?>
<!-- Generator: Adobe Illustrator 17.0.0, SVG Export Plug-In . SVG Version: 6.00 Build 0)  -->
<!DOCTYPE svg PUBLIC "-//W3C//DTD SVG 1.1//EN" "http://www.w3.org/Graphics/SVG/1.1/DTD/svg11.dtd">
<svg version="1.1" id="Layer_2" opacity="0.8" xmlns="http://www.w3.org/2000/svg" xmlns:xlink="http://www.w3.org/1999/xlink"
	 x="0px" y="0px" width="500px" height="500px" viewBox="0 0 500 500" enable-background="new 0 0 500 500" xml:space="preserve">
<g>
	<polygon fill="#D84848" points="237.038,315.082 236.734,314.185 296.482,268.62 296.482,76.318 296.982,75.818 471.412,75.818 
		471.804,76.629 370.146,205.059 471.646,314.241 471.28,315.082 	"/>
	<polygon fill="#AA1F1F" points="236.538,314.582 236.538,268.867 237.038,268.367 296.982,268.367 297.285,269.265 
		237.341,314.979 	"/>
	<polygon fill="#F57B71" points="122.847,269.367 122.364,268.997 63.827,51.018 64.31,50.388 296.982,50.388 297.482,50.888 
		297.482,268.867 296.982,269.367 	"/>
	<path fill="#DAEAF2" d="M156.416,482.616c-8.421,0-15.829-5.687-18.015-13.828L25.332,47.747
		c-2.669-9.94,3.246-20.198,13.186-22.867c1.589-0.427,3.222-0.643,4.853-0.643c8.42,0,15.828,5.687,18.015,13.828l113.068,421.041
		c1.293,4.815,0.634,9.846-1.856,14.165c-2.491,4.319-6.514,7.41-11.329,8.702C159.678,482.399,158.046,482.616,156.416,482.616z"/>
</g>
</svg>
