<?xml version="1.0" encoding="utf-8"?>
<!-- Generator: Adobe Illustrator 17.0.0, SVG Export Plug-In . SVG Version: 6.00 Build 0)  -->
<!DOCTYPE svg PUBLIC "-//W3C//DTD SVG 1.1//EN" "http://www.w3.org/Graphics/SVG/1.1/DTD/svg11.dtd">
<svg version="1.1" id="Layer_2" xmlns="http://www.w3.org/2000/svg" xmlns:xlink="http://www.w3.org/1999/xlink" x="0px" y="0px"
	 width="500px" height="392px" viewBox="0 0 500 392" enable-background="new 0 0 500 392" xml:space="preserve">
<g>
	<g>
		<g>
			
				<linearGradient id="SVGID_1_" gradientUnits="userSpaceOnUse" x1="389.2456" y1="213.0882" x2="508.9048" y2="213.0882" gradientTransform="matrix(-0.7071 0.7071 -0.7071 -0.7071 632.3879 -2.6364)">
				<stop  offset="0.5" style="stop-color:#487FBC"/>
				<stop  offset="0.5" style="stop-color:#467DB9"/>
				<stop  offset="0.5" style="stop-color:#3F74AE"/>
				<stop  offset="0.5" style="stop-color:#3B6EA7"/>
				<stop  offset="0.5" style="stop-color:#3A6DA5"/>
			</linearGradient>
			<path fill="url(#SVGID_1_)" d="M51.27,277.129c6.096,6.096,11.467,10.311,11.467,10.311c4.327,3.396,11.931,4.242,16.898,1.881
				l31.911-15.169c4.967-2.361,10.539-0.053,12.382,5.129l11.827,33.258c1.843,5.182,7.837,9.776,13.32,10.209h30.74
				c5.483-0.433,11.477-5.027,13.32-10.209l11.827-33.258c1.843-5.182,7.415-7.49,12.382-5.129l31.911,15.169
				c4.967,2.361,12.572,1.515,16.898-1.881c0,0,5.371-4.215,11.467-10.311s10.311-11.467,10.311-11.467
				c3.396-4.327,4.242-11.931,1.881-16.898l-15.169-31.911c-2.361-4.967-0.053-10.539,5.129-12.382l33.258-11.827
				c5.182-1.843,9.776-7.837,10.209-13.32l0-30.739c-0.433-5.483-5.027-11.477-10.209-13.32l-33.258-11.827
				c-5.182-1.843-7.49-7.415-5.129-12.382l15.169-31.911c2.361-4.967,1.515-12.572-1.881-16.898c0,0-4.215-5.371-10.311-11.466
				s-11.466-10.311-11.466-10.311c-4.327-3.396-11.931-4.242-16.898-1.881l-31.912,15.169c-4.967,2.361-10.539,0.053-12.382-5.129
				L193.134,15.37c-1.843-5.182-7.837-9.776-13.32-10.209h-30.739c-5.483,0.433-11.477,5.027-13.32,10.209l-11.827,33.258
				c-1.843,5.182-7.415,7.49-12.382,5.129L79.635,38.589c-4.967-2.361-12.572-1.515-16.898,1.881c0,0-5.371,4.215-11.466,10.311
				S40.959,62.247,40.959,62.247c-3.396,4.327-4.242,11.931-1.881,16.898l15.169,31.911c2.361,4.967,0.053,10.539-5.129,12.382
				L15.86,135.266c-5.182,1.843-9.776,7.837-10.209,13.32l0,30.739c0.433,5.483,5.027,11.477,10.209,13.32l33.258,11.827
				c5.182,1.843,7.49,7.415,5.129,12.382l-15.169,31.911c-2.361,4.967-1.515,12.572,1.881,16.898
				C40.959,265.663,45.174,271.033,51.27,277.129z M121.073,120.583c23.954-23.954,62.79-23.954,86.744,0
				c23.954,23.954,23.954,62.79,0,86.744c-23.954,23.954-62.79,23.953-86.744,0C97.119,183.373,97.119,144.536,121.073,120.583z"/>
		</g>
	</g>
	
		<linearGradient id="SVGID_2_" gradientUnits="userSpaceOnUse" x1="389.2456" y1="213.0882" x2="508.9048" y2="213.0882" gradientTransform="matrix(-0.7071 0.7071 -0.7071 -0.7071 632.3879 -2.6364)">
		<stop  offset="0.5" style="stop-color:#DAEAF2"/>
		<stop  offset="0.5" style="stop-color:#D3E4ED"/>
		<stop  offset="0.5" style="stop-color:#C2D5E0"/>
		<stop  offset="0.5" style="stop-color:#B7CAD7"/>
		<stop  offset="0.5" style="stop-color:#B0C4D1"/>
		<stop  offset="0.5" style="stop-color:#AEC2D0"/>
	</linearGradient>
	<path fill="url(#SVGID_2_)" d="M207.817,207.327c23.93-23.93,23.911-62.747-0.043-86.701
		c-23.954-23.954-62.771-23.973-86.701-0.043c-23.93,23.93-23.911,62.747,0.043,86.701
		C145.069,231.237,183.887,231.256,207.817,207.327z M135.502,135.012c15.969-15.969,41.872-15.956,57.857,0.029
		c15.985,15.985,15.997,41.888,0.029,57.857c-15.969,15.969-41.872,15.956-57.857-0.029
		C119.546,176.884,119.533,150.981,135.502,135.012z"/>
</g>
<g>
	<g>
		<g>
			
				<linearGradient id="SVGID_3_" gradientUnits="userSpaceOnUse" x1="334.555" y1="-36.1243" x2="409.2383" y2="-36.1243" gradientTransform="matrix(-0.7071 0.7071 -0.7071 -0.7071 632.3879 -2.6364)">
				<stop  offset="0.5" style="stop-color:#487FBC"/>
				<stop  offset="0.5" style="stop-color:#467DB9"/>
				<stop  offset="0.5" style="stop-color:#3F74AE"/>
				<stop  offset="0.5" style="stop-color:#3B6EA7"/>
				<stop  offset="0.5" style="stop-color:#3A6DA5"/>
			</linearGradient>
			<path fill="url(#SVGID_3_)" d="M324.498,356.341c3.805,3.805,4.2,4.115,4.2,4.115c4.327,3.396,11.931,4.242,16.898,1.881
				l13.128-6.24c4.967-2.361,10.539-0.053,12.382,5.129l4.863,13.675c1.843,5.182,7.837,9.776,13.32,10.209h11.692
				c5.483-0.433,11.477-5.027,13.32-10.209l4.863-13.675c1.843-5.182,7.415-7.49,12.382-5.129l13.128,6.24
				c4.967,2.361,12.572,1.515,16.898-1.881c0,0,0.395-0.31,4.2-4.115c3.805-3.805,4.115-4.2,4.115-4.2
				c3.396-4.327,4.242-11.931,1.881-16.898l-6.24-13.128c-2.361-4.967-0.053-10.539,5.129-12.382l13.675-4.863
				c5.182-1.843,9.776-7.837,10.209-13.32l0-11.691c-0.433-5.483-5.027-11.477-10.209-13.32l-13.675-4.863
				c-5.182-1.843-7.49-7.415-5.129-12.382l6.24-13.128c2.361-4.967,1.515-12.572-1.881-16.898c0,0-0.31-0.395-4.115-4.2
				c-3.805-3.805-4.2-4.115-4.2-4.115c-4.327-3.396-11.931-4.242-16.898-1.881l-13.128,6.24c-4.967,2.361-10.539,0.053-12.382-5.129
				l-4.863-13.675c-1.843-5.182-7.837-9.776-13.32-10.209h-11.691c-5.483,0.433-11.477,5.027-13.32,10.209l-4.863,13.675
				c-1.843,5.182-7.415,7.49-12.382,5.129l-13.128-6.24c-4.967-2.361-12.572-1.515-16.898,1.881c0,0-0.395,0.31-4.2,4.115
				c-3.805,3.805-4.115,4.2-4.115,4.2c-3.396,4.327-4.242,11.931-1.881,16.898l6.24,13.128c2.361,4.967,0.053,10.539-5.129,12.382
				l-13.675,4.863c-5.182,1.843-9.776,7.837-10.209,13.32l0,11.691c0.433,5.483,5.027,11.477,10.209,13.32l13.675,4.863
				c5.182,1.843,7.49,7.415,5.129,12.382l-6.24,13.128c-2.361,4.967-1.515,12.572,1.881,16.898
				C320.383,352.141,320.693,352.537,324.498,356.341z M368.064,258.635c14.95-14.95,39.189-14.95,54.14,0
				c14.95,14.95,14.95,39.189,0,54.14c-14.95,14.95-39.189,14.95-54.14,0C353.114,297.825,353.114,273.586,368.064,258.635z"/>
		</g>
	</g>
	
		<linearGradient id="SVGID_4_" gradientUnits="userSpaceOnUse" x1="334.555" y1="-36.1244" x2="409.2383" y2="-36.1244" gradientTransform="matrix(-0.7071 0.7071 -0.7071 -0.7071 632.3879 -2.6364)">
		<stop  offset="0.5" style="stop-color:#DAEAF2"/>
		<stop  offset="0.5" style="stop-color:#D3E4ED"/>
		<stop  offset="0.5" style="stop-color:#C2D5E0"/>
		<stop  offset="0.5" style="stop-color:#B7CAD7"/>
		<stop  offset="0.5" style="stop-color:#B0C4D1"/>
		<stop  offset="0.5" style="stop-color:#AEC2D0"/>
	</linearGradient>
	<path fill="url(#SVGID_4_)" d="M422.204,312.775c14.935-14.935,14.923-39.163-0.027-54.113
		c-14.95-14.95-39.177-14.962-54.113-0.027c-14.935,14.935-14.923,39.162,0.027,54.113
		C383.041,327.698,407.268,327.71,422.204,312.775z M377.07,267.641c9.967-9.967,26.134-9.959,36.11,0.018
		c9.977,9.977,9.985,26.144,0.018,36.11c-9.967,9.967-26.134,9.959-36.11-0.018C367.111,293.775,367.103,277.608,377.07,267.641z"/>
</g>
</svg>
